<svg xmlns="http://www.w3.org/2000/svg" xmlns:xlink="http://www.w3.org/1999/xlink" width="1920" height="781" viewBox="0 0 1920 781">
  <defs>
    <clipPath id="clip-path">
      <rect id="Rectangle_30" data-name="Rectangle 30" width="1920" height="781" transform="translate(-20.938 978)" fill="#fff" stroke="#707070" stroke-width="1"/>
    </clipPath>
  </defs>
  <g id="Groupe_de_masques_3" data-name="Groupe de masques 3" transform="translate(20.938 -978)" clip-path="url(#clip-path)">
    <path id="Tracé_2" data-name="Tracé 2" d="M1972.67,1032.161s457.01-83.84,455.4,0,462.5-50.7,493.168,13.176,680.749,7.187,753.393,31.141,290.735-88.831,287.507-12.975-17.212-85.239-17.212-85.239l-13.641,240.941-2065.219,26.989Z" transform="translate(-1990)" fill="#fbfbfb"/>
    <path id="Tracé_4" data-name="Tracé 4" d="M1990,1466s-104.766,328.246,32.133,260.606,404.72-57.516,432.19-35.2,379.037,142.383,424.13,44.681,961.989,165.342,1052.176,0S3960.691,1466,3960.691,1466Z" transform="translate(-2016.431 -32.806)" fill="#fbfbfb"/>
    <path id="Tracé_5" data-name="Tracé 5" d="M0,0H1960V434H0Z" transform="translate(-30.432 1191)" fill="#fbfbfb"/>
  </g>
</svg>
